<svg xmlns="http://www.w3.org/2000/svg" xmlns:xlink="http://www.w3.org/1999/xlink" width="500" zoomAndPan="magnify" viewBox="0 0 375 225" height="300" preserveAspectRatio="xMidYMid meet" version="1.2"><defs><clipPath id="c95d598462"><path d="M 0.519531 123 L 68 123 L 68 124.480469 L 0.519531 124.480469 Z M 0.519531 123 "/></clipPath><clipPath id="1a50d376ec"><path d="M 34.394531 0.714844 L 162.398438 0.714844 L 162.398438 124 L 34.394531 124 Z M 34.394531 0.714844 "/></clipPath><clipPath id="9be2122ba8"><path d="M 84.824219 81.683594 L 112 81.683594 L 112 82 L 84.824219 82 Z M 84.824219 81.683594 "/></clipPath><clipPath id="23a8c5a828"><path d="M 98.613281 95.78125 L 111.9375 81.929688 L 84.980469 81.929688 Z M 98.613281 95.78125 "/></clipPath><clipPath id="c7f22ba590"><path d="M 84.824219 82 L 112 82 L 112 83 L 84.824219 83 Z M 84.824219 82 "/></clipPath><clipPath id="a8cb0ca704"><path d="M 98.613281 95.78125 L 111.9375 81.929688 L 84.980469 81.929688 Z M 98.613281 95.78125 "/></clipPath><clipPath id="60c570da1a"><path d="M 84.824219 82 L 112 82 L 112 84 L 84.824219 84 Z M 84.824219 82 "/></clipPath><clipPath id="948a72b874"><path d="M 98.613281 95.78125 L 111.9375 81.929688 L 84.980469 81.929688 Z M 98.613281 95.78125 "/></clipPath><clipPath id="facd2ebce9"><path d="M 84.824219 83 L 112 83 L 112 84 L 84.824219 84 Z M 84.824219 83 "/></clipPath><clipPath id="f03a6e8d18"><path d="M 98.613281 95.78125 L 111.9375 81.929688 L 84.980469 81.929688 Z M 98.613281 95.78125 "/></clipPath><clipPath id="3fb4e63455"><path d="M 84.824219 83 L 112 83 L 112 85 L 84.824219 85 Z M 84.824219 83 "/></clipPath><clipPath id="adb70390d6"><path d="M 98.613281 95.78125 L 111.9375 81.929688 L 84.980469 81.929688 Z M 98.613281 95.78125 "/></clipPath><clipPath id="8a68af5d77"><path d="M 84.824219 84 L 112 84 L 112 85 L 84.824219 85 Z M 84.824219 84 "/></clipPath><clipPath id="0c3827ce2d"><path d="M 98.613281 95.78125 L 111.9375 81.929688 L 84.980469 81.929688 Z M 98.613281 95.78125 "/></clipPath><clipPath id="28311f79df"><path d="M 84.824219 84 L 112 84 L 112 86 L 84.824219 86 Z M 84.824219 84 "/></clipPath><clipPath id="0336fd321b"><path d="M 98.613281 95.78125 L 111.9375 81.929688 L 84.980469 81.929688 Z M 98.613281 95.78125 "/></clipPath><clipPath id="9bd1891075"><path d="M 84.824219 85 L 112 85 L 112 86 L 84.824219 86 Z M 84.824219 85 "/></clipPath><clipPath id="5bfab48329"><path d="M 98.613281 95.78125 L 111.9375 81.929688 L 84.980469 81.929688 Z M 98.613281 95.78125 "/></clipPath><clipPath id="e6db52257c"><path d="M 84.824219 85 L 112 85 L 112 87 L 84.824219 87 Z M 84.824219 85 "/></clipPath><clipPath id="0e5bf03e86"><path d="M 98.613281 95.78125 L 111.9375 81.929688 L 84.980469 81.929688 Z M 98.613281 95.78125 "/></clipPath><clipPath id="88f27d0b47"><path d="M 84.824219 86 L 112 86 L 112 87 L 84.824219 87 Z M 84.824219 86 "/></clipPath><clipPath id="cd76146ad5"><path d="M 98.613281 95.78125 L 111.9375 81.929688 L 84.980469 81.929688 Z M 98.613281 95.78125 "/></clipPath><clipPath id="eebc5211cc"><path d="M 84.824219 86 L 112 86 L 112 88 L 84.824219 88 Z M 84.824219 86 "/></clipPath><clipPath id="a0aa685c29"><path d="M 98.613281 95.78125 L 111.9375 81.929688 L 84.980469 81.929688 Z M 98.613281 95.78125 "/></clipPath><clipPath id="5b2fce2a55"><path d="M 84.824219 87 L 112 87 L 112 88 L 84.824219 88 Z M 84.824219 87 "/></clipPath><clipPath id="04af18acef"><path d="M 98.613281 95.78125 L 111.9375 81.929688 L 84.980469 81.929688 Z M 98.613281 95.78125 "/></clipPath><clipPath id="5a49bcaeb7"><path d="M 84.824219 87 L 112 87 L 112 89 L 84.824219 89 Z M 84.824219 87 "/></clipPath><clipPath id="b383cd076d"><path d="M 98.613281 95.78125 L 111.9375 81.929688 L 84.980469 81.929688 Z M 98.613281 95.78125 "/></clipPath><clipPath id="38081ec213"><path d="M 84.824219 88 L 112 88 L 112 89 L 84.824219 89 Z M 84.824219 88 "/></clipPath><clipPath id="77a14b0feb"><path d="M 98.613281 95.78125 L 111.9375 81.929688 L 84.980469 81.929688 Z M 98.613281 95.78125 "/></clipPath><clipPath id="02146ee5f3"><path d="M 84.824219 88 L 112 88 L 112 90 L 84.824219 90 Z M 84.824219 88 "/></clipPath><clipPath id="2b70b5b3c8"><path d="M 98.613281 95.78125 L 111.9375 81.929688 L 84.980469 81.929688 Z M 98.613281 95.78125 "/></clipPath><clipPath id="472255b79f"><path d="M 84.824219 89 L 112 89 L 112 90 L 84.824219 90 Z M 84.824219 89 "/></clipPath><clipPath id="bf738d8350"><path d="M 98.613281 95.78125 L 111.9375 81.929688 L 84.980469 81.929688 Z M 98.613281 95.78125 "/></clipPath><clipPath id="81b0ee79f3"><path d="M 84.824219 89 L 112 89 L 112 91 L 84.824219 91 Z M 84.824219 89 "/></clipPath><clipPath id="99e166b45d"><path d="M 98.613281 95.78125 L 111.9375 81.929688 L 84.980469 81.929688 Z M 98.613281 95.78125 "/></clipPath><clipPath id="a3edb93058"><path d="M 84.824219 90 L 112 90 L 112 91 L 84.824219 91 Z M 84.824219 90 "/></clipPath><clipPath id="ddf33886b9"><path d="M 98.613281 95.78125 L 111.9375 81.929688 L 84.980469 81.929688 Z M 98.613281 95.78125 "/></clipPath><clipPath id="88fafe76a7"><path d="M 84.824219 90 L 112 90 L 112 92 L 84.824219 92 Z M 84.824219 90 "/></clipPath><clipPath id="cefe0108b1"><path d="M 98.613281 95.78125 L 111.9375 81.929688 L 84.980469 81.929688 Z M 98.613281 95.78125 "/></clipPath><clipPath id="b19f7f8279"><path d="M 84.824219 91 L 112 91 L 112 92 L 84.824219 92 Z M 84.824219 91 "/></clipPath><clipPath id="e0c809b3ff"><path d="M 98.613281 95.78125 L 111.9375 81.929688 L 84.980469 81.929688 Z M 98.613281 95.78125 "/></clipPath><clipPath id="6891a20d47"><path d="M 84.824219 91 L 112 91 L 112 93 L 84.824219 93 Z M 84.824219 91 "/></clipPath><clipPath id="a4ded30bd5"><path d="M 98.613281 95.78125 L 111.9375 81.929688 L 84.980469 81.929688 Z M 98.613281 95.78125 "/></clipPath><clipPath id="280149b413"><path d="M 84.824219 92 L 112 92 L 112 93 L 84.824219 93 Z M 84.824219 92 "/></clipPath><clipPath id="48a7d8c67f"><path d="M 98.613281 95.78125 L 111.9375 81.929688 L 84.980469 81.929688 Z M 98.613281 95.78125 "/></clipPath><clipPath id="6ff3a38442"><path d="M 84.824219 92 L 112 92 L 112 94 L 84.824219 94 Z M 84.824219 92 "/></clipPath><clipPath id="2c2f485044"><path d="M 98.613281 95.78125 L 111.9375 81.929688 L 84.980469 81.929688 Z M 98.613281 95.78125 "/></clipPath><clipPath id="7ae5b0a826"><path d="M 84.824219 93 L 112 93 L 112 94 L 84.824219 94 Z M 84.824219 93 "/></clipPath><clipPath id="d6c7a92970"><path d="M 98.613281 95.78125 L 111.9375 81.929688 L 84.980469 81.929688 Z M 98.613281 95.78125 "/></clipPath><clipPath id="5ab061fc03"><path d="M 84.824219 93 L 112 93 L 112 95 L 84.824219 95 Z M 84.824219 93 "/></clipPath><clipPath id="f4cd49d5bf"><path d="M 98.613281 95.78125 L 111.9375 81.929688 L 84.980469 81.929688 Z M 98.613281 95.78125 "/></clipPath><clipPath id="7201421369"><path d="M 84.824219 94 L 112 94 L 112 95 L 84.824219 95 Z M 84.824219 94 "/></clipPath><clipPath id="bb39eea0c6"><path d="M 98.613281 95.78125 L 111.9375 81.929688 L 84.980469 81.929688 Z M 98.613281 95.78125 "/></clipPath><clipPath id="372b45bad4"><path d="M 84.824219 94 L 112 94 L 112 95.957031 L 84.824219 95.957031 Z M 84.824219 94 "/></clipPath><clipPath id="a6c1159780"><path d="M 98.613281 95.78125 L 111.9375 81.929688 L 84.980469 81.929688 Z M 98.613281 95.78125 "/></clipPath><clipPath id="2765fbad08"><path d="M 84.824219 95 L 112 95 L 112 95.957031 L 84.824219 95.957031 Z M 84.824219 95 "/></clipPath><clipPath id="7b41b59b86"><path d="M 98.613281 95.78125 L 111.9375 81.929688 L 84.980469 81.929688 Z M 98.613281 95.78125 "/></clipPath><clipPath id="910d8f6210"><path d="M 182 29 L 359.558594 29 L 359.558594 63 L 182 63 Z M 182 29 "/></clipPath><clipPath id="b62a371edf"><rect x="0" width="178" y="0" height="34"/></clipPath><clipPath id="647c457cac"><path d="M 0.078125 1 L 15 1 L 15 19 L 0.078125 19 Z M 0.078125 1 "/></clipPath><clipPath id="9189f79982"><rect x="0" width="154" y="0" height="25"/></clipPath><clipPath id="28855102f1"><rect x="0" width="360" y="0" height="125"/></clipPath></defs><g id="1daec75d43"><g transform="matrix(1,0,0,1,5,50)"><g clip-path="url(#28855102f1)"><g clip-rule="nonzero" clip-path="url(#c95d598462)"><path style="fill:none;stroke-width:1;stroke-linecap:butt;stroke-linejoin:miter;stroke:#ffffff;stroke-opacity:1;stroke-miterlimit:4;" d="M 0.0020169 0.502306 L 84.72685 0.502306 " transform="matrix(0.780514,0,0,0.780514,1.330457,123.50638)"/></g><path style="fill:none;stroke-width:1;stroke-linecap:butt;stroke-linejoin:miter;stroke:#ffffff;stroke-opacity:1;stroke-miterlimit:4;" d="M -0.00166463 0.501825 L 84.728173 0.501825 " transform="matrix(0.780514,0,0,0.780514,128.981768,123.116131)"/><g clip-rule="nonzero" clip-path="url(#1a50d376ec)"><path style=" stroke:none;fill-rule:nonzero;fill:#00fefb;fill-opacity:1;" d="M 98.222656 123.882812 L 34.433594 61.898438 L 60.761719 33.230469 L 60.886719 33.335938 L 49.207031 0.714844 L 85.160156 15.210938 L 98.222656 10.542969 L 111.28125 15.210938 L 147.242188 0.714844 L 135.5625 33.335938 L 135.6875 33.230469 L 162.011719 61.898438 Z M 45.5625 61.582031 L 98.222656 112.753906 L 150.882812 61.582031 L 134.953125 44.234375 L 118.175781 58.214844 L 133.730469 14.765625 L 111.457031 23.746094 L 98.222656 19.019531 L 84.988281 23.746094 L 62.71875 14.765625 L 78.273438 58.214844 L 61.496094 44.234375 Z M 45.5625 61.582031 "/></g><path style=" stroke:none;fill-rule:nonzero;fill:#f7941d;fill-opacity:1;" d="M 98.613281 95.78125 L 111.9375 81.929688 L 84.980469 81.929688 Z M 98.613281 95.78125 "/><g clip-rule="nonzero" clip-path="url(#9be2122ba8)"><g clip-rule="nonzero" clip-path="url(#23a8c5a828)"><path style=" stroke:none;fill-rule:nonzero;fill:#ffffff;fill-opacity:1;" d="M 84.980469 81.929688 L 111.9375 81.929688 L 111.9375 82 L 84.980469 82 Z M 84.980469 81.929688 "/></g></g><g clip-rule="nonzero" clip-path="url(#c7f22ba590)"><g clip-rule="nonzero" clip-path="url(#a8cb0ca704)"><path style=" stroke:none;fill-rule:nonzero;fill:#ffffff;fill-opacity:1;" d="M 84.980469 82 L 111.9375 82 L 111.9375 82.070312 L 84.980469 82.070312 Z M 84.980469 82 "/><path style=" stroke:none;fill-rule:nonzero;fill:#ffffff;fill-opacity:1;" d="M 84.980469 82.070312 L 111.9375 82.070312 L 111.9375 82.140625 L 84.980469 82.140625 Z M 84.980469 82.070312 "/><path style=" stroke:none;fill-rule:nonzero;fill:#ffffff;fill-opacity:1;" d="M 84.980469 82.140625 L 111.9375 82.140625 L 111.9375 82.210938 L 84.980469 82.210938 Z M 84.980469 82.140625 "/><path style=" stroke:none;fill-rule:nonzero;fill:#ffffff;fill-opacity:1;" d="M 84.980469 82.214844 L 111.9375 82.214844 L 111.9375 82.285156 L 84.980469 82.285156 Z M 84.980469 82.214844 "/><path style=" stroke:none;fill-rule:nonzero;fill:#ffffff;fill-opacity:1;" d="M 84.980469 82.285156 L 111.9375 82.285156 L 111.9375 82.355469 L 84.980469 82.355469 Z M 84.980469 82.285156 "/><path style=" stroke:none;fill-rule:nonzero;fill:#ffffff;fill-opacity:1;" d="M 84.980469 82.355469 L 111.9375 82.355469 L 111.9375 82.425781 L 84.980469 82.425781 Z M 84.980469 82.355469 "/><path style=" stroke:none;fill-rule:nonzero;fill:#ffffff;fill-opacity:1;" d="M 84.980469 82.425781 L 111.9375 82.425781 L 111.9375 82.492188 L 84.980469 82.492188 Z M 84.980469 82.425781 "/><path style=" stroke:none;fill-rule:nonzero;fill:#ffffff;fill-opacity:1;" d="M 84.980469 82.496094 L 111.9375 82.496094 L 111.9375 82.566406 L 84.980469 82.566406 Z M 84.980469 82.496094 "/><path style=" stroke:none;fill-rule:nonzero;fill:#ffffff;fill-opacity:1;" d="M 84.980469 82.566406 L 111.9375 82.566406 L 111.9375 82.636719 L 84.980469 82.636719 Z M 84.980469 82.566406 "/><path style=" stroke:none;fill-rule:nonzero;fill:#ffffff;fill-opacity:1;" d="M 84.980469 82.636719 L 111.9375 82.636719 L 111.9375 82.707031 L 84.980469 82.707031 Z M 84.980469 82.636719 "/><path style=" stroke:none;fill-rule:nonzero;fill:#ffffff;fill-opacity:1;" d="M 84.980469 82.707031 L 111.9375 82.707031 L 111.9375 82.777344 L 84.980469 82.777344 Z M 84.980469 82.707031 "/><path style=" stroke:none;fill-rule:nonzero;fill:#ffffff;fill-opacity:1;" d="M 84.980469 82.777344 L 111.9375 82.777344 L 111.9375 82.847656 L 84.980469 82.847656 Z M 84.980469 82.777344 "/><path style=" stroke:none;fill-rule:nonzero;fill:#ffffff;fill-opacity:1;" d="M 84.980469 82.847656 L 111.9375 82.847656 L 111.9375 82.917969 L 84.980469 82.917969 Z M 84.980469 82.847656 "/><path style=" stroke:none;fill-rule:nonzero;fill:#ffffff;fill-opacity:1;" d="M 84.980469 82.917969 L 111.9375 82.917969 L 111.9375 82.988281 L 84.980469 82.988281 Z M 84.980469 82.917969 "/></g></g><g clip-rule="nonzero" clip-path="url(#60c570da1a)"><g clip-rule="nonzero" clip-path="url(#948a72b874)"><path style=" stroke:none;fill-rule:nonzero;fill:#ffffff;fill-opacity:1;" d="M 84.980469 82.988281 L 111.9375 82.988281 L 111.9375 83.058594 L 84.980469 83.058594 Z M 84.980469 82.988281 "/></g></g><g clip-rule="nonzero" clip-path="url(#facd2ebce9)"><g clip-rule="nonzero" clip-path="url(#f03a6e8d18)"><path style=" stroke:none;fill-rule:nonzero;fill:#ffffff;fill-opacity:1;" d="M 84.980469 83.0625 L 111.9375 83.0625 L 111.9375 83.132812 L 84.980469 83.132812 Z M 84.980469 83.0625 "/><path style=" stroke:none;fill-rule:nonzero;fill:#ffffff;fill-opacity:1;" d="M 84.980469 83.132812 L 111.9375 83.132812 L 111.9375 83.203125 L 84.980469 83.203125 Z M 84.980469 83.132812 "/><path style=" stroke:none;fill-rule:nonzero;fill:#ffffff;fill-opacity:1;" d="M 84.980469 83.203125 L 111.9375 83.203125 L 111.9375 83.269531 L 84.980469 83.269531 Z M 84.980469 83.203125 "/><path style=" stroke:none;fill-rule:nonzero;fill:#ffffff;fill-opacity:1;" d="M 84.980469 83.273438 L 111.9375 83.273438 L 111.9375 83.34375 L 84.980469 83.34375 Z M 84.980469 83.273438 "/><path style=" stroke:none;fill-rule:nonzero;fill:#ffffff;fill-opacity:1;" d="M 84.980469 83.34375 L 111.9375 83.34375 L 111.9375 83.414062 L 84.980469 83.414062 Z M 84.980469 83.34375 "/><path style=" stroke:none;fill-rule:nonzero;fill:#ffffff;fill-opacity:1;" d="M 84.980469 83.414062 L 111.9375 83.414062 L 111.9375 83.484375 L 84.980469 83.484375 Z M 84.980469 83.414062 "/><path style=" stroke:none;fill-rule:nonzero;fill:#ffffff;fill-opacity:1;" d="M 84.980469 83.484375 L 111.9375 83.484375 L 111.9375 83.554688 L 84.980469 83.554688 Z M 84.980469 83.484375 "/><path style=" stroke:none;fill-rule:nonzero;fill:#ffffff;fill-opacity:1;" d="M 84.980469 83.558594 L 111.9375 83.558594 L 111.9375 83.625 L 84.980469 83.625 Z M 84.980469 83.558594 "/><path style=" stroke:none;fill-rule:nonzero;fill:#ffffff;fill-opacity:1;" d="M 84.980469 83.625 L 111.9375 83.625 L 111.9375 83.695312 L 84.980469 83.695312 Z M 84.980469 83.625 "/><path style=" stroke:none;fill-rule:nonzero;fill:#ffffff;fill-opacity:1;" d="M 84.980469 83.695312 L 111.9375 83.695312 L 111.9375 83.765625 L 84.980469 83.765625 Z M 84.980469 83.695312 "/><path style=" stroke:none;fill-rule:nonzero;fill:#ffffff;fill-opacity:1;" d="M 84.980469 83.765625 L 111.9375 83.765625 L 111.9375 83.835938 L 84.980469 83.835938 Z M 84.980469 83.765625 "/><path style=" stroke:none;fill-rule:nonzero;fill:#ffffff;fill-opacity:1;" d="M 84.980469 83.839844 L 111.9375 83.839844 L 111.9375 83.910156 L 84.980469 83.910156 Z M 84.980469 83.839844 "/><path style=" stroke:none;fill-rule:nonzero;fill:#ffffff;fill-opacity:1;" d="M 84.980469 83.910156 L 111.9375 83.910156 L 111.9375 83.980469 L 84.980469 83.980469 Z M 84.980469 83.910156 "/></g></g><g clip-rule="nonzero" clip-path="url(#3fb4e63455)"><g clip-rule="nonzero" clip-path="url(#adb70390d6)"><path style=" stroke:none;fill-rule:nonzero;fill:#ffffff;fill-opacity:1;" d="M 84.980469 83.980469 L 111.9375 83.980469 L 111.9375 84.050781 L 84.980469 84.050781 Z M 84.980469 83.980469 "/></g></g><g clip-rule="nonzero" clip-path="url(#8a68af5d77)"><g clip-rule="nonzero" clip-path="url(#0c3827ce2d)"><path style=" stroke:none;fill-rule:nonzero;fill:#ffffff;fill-opacity:1;" d="M 84.980469 84.050781 L 111.9375 84.050781 L 111.9375 84.117188 L 84.980469 84.117188 Z M 84.980469 84.050781 "/><path style=" stroke:none;fill-rule:nonzero;fill:#ffffff;fill-opacity:1;" d="M 84.980469 84.121094 L 111.9375 84.121094 L 111.9375 84.191406 L 84.980469 84.191406 Z M 84.980469 84.121094 "/><path style=" stroke:none;fill-rule:nonzero;fill:#ffffff;fill-opacity:1;" d="M 84.980469 84.191406 L 111.9375 84.191406 L 111.9375 84.261719 L 84.980469 84.261719 Z M 84.980469 84.191406 "/><path style=" stroke:none;fill-rule:nonzero;fill:#ffffff;fill-opacity:1;" d="M 84.980469 84.261719 L 111.9375 84.261719 L 111.9375 84.332031 L 84.980469 84.332031 Z M 84.980469 84.261719 "/><path style=" stroke:none;fill-rule:nonzero;fill:#ffffff;fill-opacity:1;" d="M 84.980469 84.332031 L 111.9375 84.332031 L 111.9375 84.402344 L 84.980469 84.402344 Z M 84.980469 84.332031 "/><path style=" stroke:none;fill-rule:nonzero;fill:#ffffff;fill-opacity:1;" d="M 84.980469 84.40625 L 111.9375 84.40625 L 111.9375 84.472656 L 84.980469 84.472656 Z M 84.980469 84.40625 "/><path style=" stroke:none;fill-rule:nonzero;fill:#ffffff;fill-opacity:1;" d="M 84.980469 84.472656 L 111.9375 84.472656 L 111.9375 84.542969 L 84.980469 84.542969 Z M 84.980469 84.472656 "/><path style=" stroke:none;fill-rule:nonzero;fill:#ffffff;fill-opacity:1;" d="M 84.980469 84.542969 L 111.9375 84.542969 L 111.9375 84.613281 L 84.980469 84.613281 Z M 84.980469 84.542969 "/><path style=" stroke:none;fill-rule:nonzero;fill:#ffffff;fill-opacity:1;" d="M 84.980469 84.617188 L 111.9375 84.617188 L 111.9375 84.6875 L 84.980469 84.6875 Z M 84.980469 84.617188 "/><path style=" stroke:none;fill-rule:nonzero;fill:#ffffff;fill-opacity:1;" d="M 84.980469 84.6875 L 111.9375 84.6875 L 111.9375 84.757812 L 84.980469 84.757812 Z M 84.980469 84.6875 "/><path style=" stroke:none;fill-rule:nonzero;fill:#ffffff;fill-opacity:1;" d="M 84.980469 84.757812 L 111.9375 84.757812 L 111.9375 84.828125 L 84.980469 84.828125 Z M 84.980469 84.757812 "/><path style=" stroke:none;fill-rule:nonzero;fill:#ffffff;fill-opacity:1;" d="M 84.980469 84.828125 L 111.9375 84.828125 L 111.9375 84.898438 L 84.980469 84.898438 Z M 84.980469 84.828125 "/><path style=" stroke:none;fill-rule:nonzero;fill:#ffffff;fill-opacity:1;" d="M 84.980469 84.898438 L 111.9375 84.898438 L 111.9375 84.96875 L 84.980469 84.96875 Z M 84.980469 84.898438 "/></g></g><g clip-rule="nonzero" clip-path="url(#28311f79df)"><g clip-rule="nonzero" clip-path="url(#0336fd321b)"><path style=" stroke:none;fill-rule:nonzero;fill:#ffffff;fill-opacity:1;" d="M 84.980469 84.96875 L 111.9375 84.96875 L 111.9375 85.039062 L 84.980469 85.039062 Z M 84.980469 84.96875 "/></g></g><g clip-rule="nonzero" clip-path="url(#9bd1891075)"><g clip-rule="nonzero" clip-path="url(#5bfab48329)"><path style=" stroke:none;fill-rule:nonzero;fill:#ffffff;fill-opacity:1;" d="M 84.980469 85.039062 L 111.9375 85.039062 L 111.9375 85.109375 L 84.980469 85.109375 Z M 84.980469 85.039062 "/><path style=" stroke:none;fill-rule:nonzero;fill:#ffffff;fill-opacity:1;" d="M 84.980469 85.109375 L 111.9375 85.109375 L 111.9375 85.179688 L 84.980469 85.179688 Z M 84.980469 85.109375 "/><path style=" stroke:none;fill-rule:nonzero;fill:#ffffff;fill-opacity:1;" d="M 84.980469 85.183594 L 111.9375 85.183594 L 111.9375 85.253906 L 84.980469 85.253906 Z M 84.980469 85.183594 "/><path style=" stroke:none;fill-rule:nonzero;fill:#ffffff;fill-opacity:1;" d="M 84.980469 85.253906 L 111.9375 85.253906 L 111.9375 85.320312 L 84.980469 85.320312 Z M 84.980469 85.253906 "/><path style=" stroke:none;fill-rule:nonzero;fill:#ffffff;fill-opacity:1;" d="M 84.980469 85.320312 L 111.9375 85.320312 L 111.9375 85.390625 L 84.980469 85.390625 Z M 84.980469 85.320312 "/><path style=" stroke:none;fill-rule:nonzero;fill:#ffffff;fill-opacity:1;" d="M 84.980469 85.390625 L 111.9375 85.390625 L 111.9375 85.460938 L 84.980469 85.460938 Z M 84.980469 85.390625 "/><path style=" stroke:none;fill-rule:nonzero;fill:#ffffff;fill-opacity:1;" d="M 84.980469 85.464844 L 111.9375 85.464844 L 111.9375 85.535156 L 84.980469 85.535156 Z M 84.980469 85.464844 "/><path style=" stroke:none;fill-rule:nonzero;fill:#ffffff;fill-opacity:1;" d="M 84.980469 85.535156 L 111.9375 85.535156 L 111.9375 85.605469 L 84.980469 85.605469 Z M 84.980469 85.535156 "/><path style=" stroke:none;fill-rule:nonzero;fill:#ffffff;fill-opacity:1;" d="M 84.980469 85.605469 L 111.9375 85.605469 L 111.9375 85.675781 L 84.980469 85.675781 Z M 84.980469 85.605469 "/><path style=" stroke:none;fill-rule:nonzero;fill:#ffffff;fill-opacity:1;" d="M 84.980469 85.675781 L 111.9375 85.675781 L 111.9375 85.746094 L 84.980469 85.746094 Z M 84.980469 85.675781 "/><path style=" stroke:none;fill-rule:nonzero;fill:#ffffff;fill-opacity:1;" d="M 84.980469 85.746094 L 111.9375 85.746094 L 111.9375 85.816406 L 84.980469 85.816406 Z M 84.980469 85.746094 "/><path style=" stroke:none;fill-rule:nonzero;fill:#ffffff;fill-opacity:1;" d="M 84.980469 85.816406 L 111.9375 85.816406 L 111.9375 85.886719 L 84.980469 85.886719 Z M 84.980469 85.816406 "/><path style=" stroke:none;fill-rule:nonzero;fill:#ffffff;fill-opacity:1;" d="M 84.980469 85.886719 L 111.9375 85.886719 L 111.9375 85.957031 L 84.980469 85.957031 Z M 84.980469 85.886719 "/></g></g><g clip-rule="nonzero" clip-path="url(#e6db52257c)"><g clip-rule="nonzero" clip-path="url(#0e5bf03e86)"><path style=" stroke:none;fill-rule:nonzero;fill:#ffffff;fill-opacity:1;" d="M 84.980469 85.960938 L 111.9375 85.960938 L 111.9375 86.03125 L 84.980469 86.03125 Z M 84.980469 85.960938 "/></g></g><g clip-rule="nonzero" clip-path="url(#88f27d0b47)"><g clip-rule="nonzero" clip-path="url(#cd76146ad5)"><path style=" stroke:none;fill-rule:nonzero;fill:#ffffff;fill-opacity:1;" d="M 84.980469 86.03125 L 111.9375 86.03125 L 111.9375 86.097656 L 84.980469 86.097656 Z M 84.980469 86.03125 "/><path style=" stroke:none;fill-rule:nonzero;fill:#ffffff;fill-opacity:1;" d="M 84.980469 86.097656 L 111.9375 86.097656 L 111.9375 86.167969 L 84.980469 86.167969 Z M 84.980469 86.097656 "/><path style=" stroke:none;fill-rule:nonzero;fill:#ffffff;fill-opacity:1;" d="M 84.980469 86.167969 L 111.9375 86.167969 L 111.9375 86.238281 L 84.980469 86.238281 Z M 84.980469 86.167969 "/><path style=" stroke:none;fill-rule:nonzero;fill:#ffffff;fill-opacity:1;" d="M 84.980469 86.242188 L 111.9375 86.242188 L 111.9375 86.3125 L 84.980469 86.3125 Z M 84.980469 86.242188 "/><path style=" stroke:none;fill-rule:nonzero;fill:#ffffff;fill-opacity:1;" d="M 84.980469 86.3125 L 111.9375 86.3125 L 111.9375 86.382812 L 84.980469 86.382812 Z M 84.980469 86.3125 "/><path style=" stroke:none;fill-rule:nonzero;fill:#ffffff;fill-opacity:1;" d="M 84.980469 86.382812 L 111.9375 86.382812 L 111.9375 86.453125 L 84.980469 86.453125 Z M 84.980469 86.382812 "/><path style=" stroke:none;fill-rule:nonzero;fill:#ffffff;fill-opacity:1;" d="M 84.980469 86.453125 L 111.9375 86.453125 L 111.9375 86.523438 L 84.980469 86.523438 Z M 84.980469 86.453125 "/><path style=" stroke:none;fill-rule:nonzero;fill:#ffffff;fill-opacity:1;" d="M 84.980469 86.523438 L 111.9375 86.523438 L 111.9375 86.59375 L 84.980469 86.59375 Z M 84.980469 86.523438 "/><path style=" stroke:none;fill-rule:nonzero;fill:#ffffff;fill-opacity:1;" d="M 84.980469 86.59375 L 111.9375 86.59375 L 111.9375 86.664062 L 84.980469 86.664062 Z M 84.980469 86.59375 "/><path style=" stroke:none;fill-rule:nonzero;fill:#ffffff;fill-opacity:1;" d="M 84.980469 86.664062 L 111.9375 86.664062 L 111.9375 86.734375 L 84.980469 86.734375 Z M 84.980469 86.664062 "/><path style=" stroke:none;fill-rule:nonzero;fill:#ffffff;fill-opacity:1;" d="M 84.980469 86.734375 L 111.9375 86.734375 L 111.9375 86.804688 L 84.980469 86.804688 Z M 84.980469 86.734375 "/><path style=" stroke:none;fill-rule:nonzero;fill:#ffffff;fill-opacity:1;" d="M 84.980469 86.808594 L 111.9375 86.808594 L 111.9375 86.878906 L 84.980469 86.878906 Z M 84.980469 86.808594 "/><path style=" stroke:none;fill-rule:nonzero;fill:#ffffff;fill-opacity:1;" d="M 84.980469 86.878906 L 111.9375 86.878906 L 111.9375 86.945312 L 84.980469 86.945312 Z M 84.980469 86.878906 "/></g></g><g clip-rule="nonzero" clip-path="url(#eebc5211cc)"><g clip-rule="nonzero" clip-path="url(#a0aa685c29)"><path style=" stroke:none;fill-rule:nonzero;fill:#ffffff;fill-opacity:1;" d="M 84.980469 86.945312 L 111.9375 86.945312 L 111.9375 87.015625 L 84.980469 87.015625 Z M 84.980469 86.945312 "/></g></g><g clip-rule="nonzero" clip-path="url(#5b2fce2a55)"><g clip-rule="nonzero" clip-path="url(#04af18acef)"><path style=" stroke:none;fill-rule:nonzero;fill:#ffffff;fill-opacity:1;" d="M 84.980469 87.019531 L 111.9375 87.019531 L 111.9375 87.089844 L 84.980469 87.089844 Z M 84.980469 87.019531 "/><path style=" stroke:none;fill-rule:nonzero;fill:#ffffff;fill-opacity:1;" d="M 84.980469 87.089844 L 111.9375 87.089844 L 111.9375 87.160156 L 84.980469 87.160156 Z M 84.980469 87.089844 "/><path style=" stroke:none;fill-rule:nonzero;fill:#ffffff;fill-opacity:1;" d="M 84.980469 87.160156 L 111.9375 87.160156 L 111.9375 87.230469 L 84.980469 87.230469 Z M 84.980469 87.160156 "/><path style=" stroke:none;fill-rule:nonzero;fill:#ffffff;fill-opacity:1;" d="M 84.980469 87.230469 L 111.9375 87.230469 L 111.9375 87.300781 L 84.980469 87.300781 Z M 84.980469 87.230469 "/><path style=" stroke:none;fill-rule:nonzero;fill:#ffffff;fill-opacity:1;" d="M 84.980469 87.300781 L 111.9375 87.300781 L 111.9375 87.371094 L 84.980469 87.371094 Z M 84.980469 87.300781 "/><path style=" stroke:none;fill-rule:nonzero;fill:#ffffff;fill-opacity:1;" d="M 84.980469 87.371094 L 111.9375 87.371094 L 111.9375 87.441406 L 84.980469 87.441406 Z M 84.980469 87.371094 "/><path style=" stroke:none;fill-rule:nonzero;fill:#ffffff;fill-opacity:1;" d="M 84.980469 87.441406 L 111.9375 87.441406 L 111.9375 87.511719 L 84.980469 87.511719 Z M 84.980469 87.441406 "/><path style=" stroke:none;fill-rule:nonzero;fill:#ffffff;fill-opacity:1;" d="M 84.980469 87.511719 L 111.9375 87.511719 L 111.9375 87.582031 L 84.980469 87.582031 Z M 84.980469 87.511719 "/><path style=" stroke:none;fill-rule:nonzero;fill:#ffffff;fill-opacity:1;" d="M 84.980469 87.585938 L 111.9375 87.585938 L 111.9375 87.65625 L 84.980469 87.65625 Z M 84.980469 87.585938 "/><path style=" stroke:none;fill-rule:nonzero;fill:#ffffff;fill-opacity:1;" d="M 84.980469 87.65625 L 111.9375 87.65625 L 111.9375 87.726562 L 84.980469 87.726562 Z M 84.980469 87.65625 "/><path style=" stroke:none;fill-rule:nonzero;fill:#ffffff;fill-opacity:1;" d="M 84.980469 87.726562 L 111.9375 87.726562 L 111.9375 87.792969 L 84.980469 87.792969 Z M 84.980469 87.726562 "/><path style=" stroke:none;fill-rule:nonzero;fill:#ffffff;fill-opacity:1;" d="M 84.980469 87.792969 L 111.9375 87.792969 L 111.9375 87.863281 L 84.980469 87.863281 Z M 84.980469 87.792969 "/><path style=" stroke:none;fill-rule:nonzero;fill:#ffffff;fill-opacity:1;" d="M 84.980469 87.867188 L 111.9375 87.867188 L 111.9375 87.9375 L 84.980469 87.9375 Z M 84.980469 87.867188 "/></g></g><g clip-rule="nonzero" clip-path="url(#5a49bcaeb7)"><g clip-rule="nonzero" clip-path="url(#b383cd076d)"><path style=" stroke:none;fill-rule:nonzero;fill:#ffffff;fill-opacity:1;" d="M 84.980469 87.9375 L 111.9375 87.9375 L 111.9375 88.007812 L 84.980469 88.007812 Z M 84.980469 87.9375 "/></g></g><g clip-rule="nonzero" clip-path="url(#38081ec213)"><g clip-rule="nonzero" clip-path="url(#77a14b0feb)"><path style=" stroke:none;fill-rule:nonzero;fill:#ffffff;fill-opacity:1;" d="M 84.980469 88.007812 L 111.9375 88.007812 L 111.9375 88.078125 L 84.980469 88.078125 Z M 84.980469 88.007812 "/><path style=" stroke:none;fill-rule:nonzero;fill:#ffffff;fill-opacity:1;" d="M 84.980469 88.078125 L 111.9375 88.078125 L 111.9375 88.148438 L 84.980469 88.148438 Z M 84.980469 88.078125 "/><path style=" stroke:none;fill-rule:nonzero;fill:#ffffff;fill-opacity:1;" d="M 84.980469 88.148438 L 111.9375 88.148438 L 111.9375 88.21875 L 84.980469 88.21875 Z M 84.980469 88.148438 "/><path style=" stroke:none;fill-rule:nonzero;fill:#ffffff;fill-opacity:1;" d="M 84.980469 88.21875 L 111.9375 88.21875 L 111.9375 88.289062 L 84.980469 88.289062 Z M 84.980469 88.21875 "/><path style=" stroke:none;fill-rule:nonzero;fill:#ffffff;fill-opacity:1;" d="M 84.980469 88.289062 L 111.9375 88.289062 L 111.9375 88.359375 L 84.980469 88.359375 Z M 84.980469 88.289062 "/><path style=" stroke:none;fill-rule:nonzero;fill:#ffffff;fill-opacity:1;" d="M 84.980469 88.363281 L 111.9375 88.363281 L 111.9375 88.433594 L 84.980469 88.433594 Z M 84.980469 88.363281 "/><path style=" stroke:none;fill-rule:nonzero;fill:#ffffff;fill-opacity:1;" d="M 84.980469 88.433594 L 111.9375 88.433594 L 111.9375 88.503906 L 84.980469 88.503906 Z M 84.980469 88.433594 "/><path style=" stroke:none;fill-rule:nonzero;fill:#ffffff;fill-opacity:1;" d="M 84.980469 88.503906 L 111.9375 88.503906 L 111.9375 88.574219 L 84.980469 88.574219 Z M 84.980469 88.503906 "/><path style=" stroke:none;fill-rule:nonzero;fill:#ffffff;fill-opacity:1;" d="M 84.980469 88.574219 L 111.9375 88.574219 L 111.9375 88.640625 L 84.980469 88.640625 Z M 84.980469 88.574219 "/><path style=" stroke:none;fill-rule:nonzero;fill:#ffffff;fill-opacity:1;" d="M 84.980469 88.644531 L 111.9375 88.644531 L 111.9375 88.714844 L 84.980469 88.714844 Z M 84.980469 88.644531 "/><path style=" stroke:none;fill-rule:nonzero;fill:#ffffff;fill-opacity:1;" d="M 84.980469 88.714844 L 111.9375 88.714844 L 111.9375 88.785156 L 84.980469 88.785156 Z M 84.980469 88.714844 "/><path style=" stroke:none;fill-rule:nonzero;fill:#ffffff;fill-opacity:1;" d="M 84.980469 88.785156 L 111.9375 88.785156 L 111.9375 88.855469 L 84.980469 88.855469 Z M 84.980469 88.785156 "/></g></g><g clip-rule="nonzero" clip-path="url(#02146ee5f3)"><g clip-rule="nonzero" clip-path="url(#2b70b5b3c8)"><path style=" stroke:none;fill-rule:nonzero;fill:#ffffff;fill-opacity:1;" d="M 84.980469 88.855469 L 111.9375 88.855469 L 111.9375 89.09375 L 84.980469 89.09375 Z M 84.980469 88.855469 "/></g></g><g clip-rule="nonzero" clip-path="url(#472255b79f)"><g clip-rule="nonzero" clip-path="url(#bf738d8350)"><path style=" stroke:none;fill-rule:nonzero;fill:#ffffff;fill-opacity:1;" d="M 84.980469 89.09375 L 111.9375 89.09375 L 111.9375 89.332031 L 84.980469 89.332031 Z M 84.980469 89.09375 "/><path style=" stroke:none;fill-rule:nonzero;fill:#ffffff;fill-opacity:1;" d="M 84.980469 89.332031 L 111.9375 89.332031 L 111.9375 89.570312 L 84.980469 89.570312 Z M 84.980469 89.332031 "/><path style=" stroke:none;fill-rule:nonzero;fill:#ffffff;fill-opacity:1;" d="M 84.980469 89.570312 L 111.9375 89.570312 L 111.9375 89.808594 L 84.980469 89.808594 Z M 84.980469 89.570312 "/></g></g><g clip-rule="nonzero" clip-path="url(#81b0ee79f3)"><g clip-rule="nonzero" clip-path="url(#99e166b45d)"><path style=" stroke:none;fill-rule:nonzero;fill:#ffffff;fill-opacity:1;" d="M 84.980469 89.808594 L 111.9375 89.808594 L 111.9375 90.050781 L 84.980469 90.050781 Z M 84.980469 89.808594 "/></g></g><g clip-rule="nonzero" clip-path="url(#a3edb93058)"><g clip-rule="nonzero" clip-path="url(#ddf33886b9)"><path style=" stroke:none;fill-rule:nonzero;fill:#ffffff;fill-opacity:1;" d="M 84.980469 90.050781 L 111.9375 90.050781 L 111.9375 90.289062 L 84.980469 90.289062 Z M 84.980469 90.050781 "/><path style=" stroke:none;fill-rule:nonzero;fill:#ffffff;fill-opacity:1;" d="M 84.980469 90.289062 L 111.9375 90.289062 L 111.9375 90.527344 L 84.980469 90.527344 Z M 84.980469 90.289062 "/><path style=" stroke:none;fill-rule:nonzero;fill:#ffffff;fill-opacity:1;" d="M 84.980469 90.527344 L 111.9375 90.527344 L 111.9375 90.765625 L 84.980469 90.765625 Z M 84.980469 90.527344 "/></g></g><g clip-rule="nonzero" clip-path="url(#88fafe76a7)"><g clip-rule="nonzero" clip-path="url(#cefe0108b1)"><path style=" stroke:none;fill-rule:nonzero;fill:#ffffff;fill-opacity:1;" d="M 84.980469 90.765625 L 111.9375 90.765625 L 111.9375 91.003906 L 84.980469 91.003906 Z M 84.980469 90.765625 "/></g></g><g clip-rule="nonzero" clip-path="url(#b19f7f8279)"><g clip-rule="nonzero" clip-path="url(#e0c809b3ff)"><path style=" stroke:none;fill-rule:nonzero;fill:#ffffff;fill-opacity:1;" d="M 84.980469 91.003906 L 111.9375 91.003906 L 111.9375 91.242188 L 84.980469 91.242188 Z M 84.980469 91.003906 "/><path style=" stroke:none;fill-rule:nonzero;fill:#ffffff;fill-opacity:1;" d="M 84.980469 91.242188 L 111.9375 91.242188 L 111.9375 91.480469 L 84.980469 91.480469 Z M 84.980469 91.242188 "/><path style=" stroke:none;fill-rule:nonzero;fill:#ffffff;fill-opacity:1;" d="M 84.980469 91.480469 L 111.9375 91.480469 L 111.9375 91.722656 L 84.980469 91.722656 Z M 84.980469 91.480469 "/><path style=" stroke:none;fill-rule:nonzero;fill:#ffffff;fill-opacity:1;" d="M 84.980469 91.722656 L 111.9375 91.722656 L 111.9375 91.960938 L 84.980469 91.960938 Z M 84.980469 91.722656 "/></g></g><g clip-rule="nonzero" clip-path="url(#6891a20d47)"><g clip-rule="nonzero" clip-path="url(#a4ded30bd5)"><path style=" stroke:none;fill-rule:nonzero;fill:#ffffff;fill-opacity:1;" d="M 84.980469 91.960938 L 111.9375 91.960938 L 111.9375 92.199219 L 84.980469 92.199219 Z M 84.980469 91.960938 "/></g></g><g clip-rule="nonzero" clip-path="url(#280149b413)"><g clip-rule="nonzero" clip-path="url(#48a7d8c67f)"><path style=" stroke:none;fill-rule:nonzero;fill:#ffffff;fill-opacity:1;" d="M 84.980469 92.199219 L 111.9375 92.199219 L 111.9375 92.4375 L 84.980469 92.4375 Z M 84.980469 92.199219 "/><path style=" stroke:none;fill-rule:nonzero;fill:#ffffff;fill-opacity:1;" d="M 84.980469 92.4375 L 111.9375 92.4375 L 111.9375 92.675781 L 84.980469 92.675781 Z M 84.980469 92.4375 "/><path style=" stroke:none;fill-rule:nonzero;fill:#ffffff;fill-opacity:1;" d="M 84.980469 92.675781 L 111.9375 92.675781 L 111.9375 92.914062 L 84.980469 92.914062 Z M 84.980469 92.675781 "/></g></g><g clip-rule="nonzero" clip-path="url(#6ff3a38442)"><g clip-rule="nonzero" clip-path="url(#2c2f485044)"><path style=" stroke:none;fill-rule:nonzero;fill:#ffffff;fill-opacity:1;" d="M 84.980469 92.914062 L 111.9375 92.914062 L 111.9375 93.152344 L 84.980469 93.152344 Z M 84.980469 92.914062 "/></g></g><g clip-rule="nonzero" clip-path="url(#7ae5b0a826)"><g clip-rule="nonzero" clip-path="url(#d6c7a92970)"><path style=" stroke:none;fill-rule:nonzero;fill:#ffffff;fill-opacity:1;" d="M 84.980469 93.152344 L 111.9375 93.152344 L 111.9375 93.394531 L 84.980469 93.394531 Z M 84.980469 93.152344 "/><path style=" stroke:none;fill-rule:nonzero;fill:#ffffff;fill-opacity:1;" d="M 84.980469 93.394531 L 111.9375 93.394531 L 111.9375 93.632812 L 84.980469 93.632812 Z M 84.980469 93.394531 "/><path style=" stroke:none;fill-rule:nonzero;fill:#ffffff;fill-opacity:1;" d="M 84.980469 93.632812 L 111.9375 93.632812 L 111.9375 93.871094 L 84.980469 93.871094 Z M 84.980469 93.632812 "/></g></g><g clip-rule="nonzero" clip-path="url(#5ab061fc03)"><g clip-rule="nonzero" clip-path="url(#f4cd49d5bf)"><path style=" stroke:none;fill-rule:nonzero;fill:#ffffff;fill-opacity:1;" d="M 84.980469 93.871094 L 111.9375 93.871094 L 111.9375 94.109375 L 84.980469 94.109375 Z M 84.980469 93.871094 "/></g></g><g clip-rule="nonzero" clip-path="url(#7201421369)"><g clip-rule="nonzero" clip-path="url(#bb39eea0c6)"><path style=" stroke:none;fill-rule:nonzero;fill:#ffffff;fill-opacity:1;" d="M 84.980469 94.109375 L 111.9375 94.109375 L 111.9375 94.347656 L 84.980469 94.347656 Z M 84.980469 94.109375 "/><path style=" stroke:none;fill-rule:nonzero;fill:#ffffff;fill-opacity:1;" d="M 84.980469 94.347656 L 111.9375 94.347656 L 111.9375 94.585938 L 84.980469 94.585938 Z M 84.980469 94.347656 "/><path style=" stroke:none;fill-rule:nonzero;fill:#ffffff;fill-opacity:1;" d="M 84.980469 94.585938 L 111.9375 94.585938 L 111.9375 94.824219 L 84.980469 94.824219 Z M 84.980469 94.585938 "/></g></g><g clip-rule="nonzero" clip-path="url(#372b45bad4)"><g clip-rule="nonzero" clip-path="url(#a6c1159780)"><path style=" stroke:none;fill-rule:nonzero;fill:#ffffff;fill-opacity:1;" d="M 84.980469 94.824219 L 111.9375 94.824219 L 111.9375 95.066406 L 84.980469 95.066406 Z M 84.980469 94.824219 "/></g></g><g clip-rule="nonzero" clip-path="url(#2765fbad08)"><g clip-rule="nonzero" clip-path="url(#7b41b59b86)"><path style=" stroke:none;fill-rule:nonzero;fill:#ffffff;fill-opacity:1;" d="M 84.980469 95.066406 L 111.9375 95.066406 L 111.9375 95.304688 L 84.980469 95.304688 Z M 84.980469 95.066406 "/><path style=" stroke:none;fill-rule:nonzero;fill:#ffffff;fill-opacity:1;" d="M 84.980469 95.304688 L 111.9375 95.304688 L 111.9375 95.542969 L 84.980469 95.542969 Z M 84.980469 95.304688 "/><path style=" stroke:none;fill-rule:nonzero;fill:#ffffff;fill-opacity:1;" d="M 84.980469 95.542969 L 111.9375 95.542969 L 111.9375 95.78125 L 84.980469 95.78125 Z M 84.980469 95.542969 "/></g></g><g clip-rule="nonzero" clip-path="url(#910d8f6210)"><g transform="matrix(1,0,0,1,182,29)"><g id="7785d62c24" clip-path="url(#b62a371edf)"><g style="fill:#ffffff;fill-opacity:1;"><g transform="translate(1.605829, 27.987847)"><path style="stroke:none" d="M 16.21875 -15.421875 L 6.828125 -15.421875 L 6.828125 -10.96875 L 15.484375 -10.96875 L 15.484375 -7.109375 L 6.828125 -7.109375 L 6.828125 0 L 1.921875 0 L 1.921875 -19.28125 L 16.21875 -19.28125 Z M 16.21875 -15.421875 "/></g></g><g style="fill:#ffffff;fill-opacity:1;"><g transform="translate(18.24606, 27.987847)"><path style="stroke:none" d="M 19.28125 -19.28125 L 19.28125 -8.09375 C 19.28125 -5.539062 18.488281 -3.515625 16.90625 -2.015625 C 15.332031 -0.523438 13.195312 0.21875 10.5 0.21875 C 7.78125 0.21875 5.613281 -0.523438 4 -2.015625 C 2.394531 -3.515625 1.59375 -5.539062 1.59375 -8.09375 L 1.59375 -19.28125 L 6.5 -19.28125 L 6.5 -8.09375 C 6.5 -6.8125 6.867188 -5.789062 7.609375 -5.03125 C 8.359375 -4.269531 9.328125 -3.890625 10.515625 -3.890625 C 11.691406 -3.890625 12.632812 -4.265625 13.34375 -5.015625 C 14.050781 -5.765625 14.40625 -6.789062 14.40625 -8.09375 L 14.40625 -19.28125 Z M 19.28125 -19.28125 "/></g></g><g style="fill:#ffffff;fill-opacity:1;"><g transform="translate(39.128999, 27.987847)"><path style="stroke:none" d="M 13.546875 0 L 10.6875 -5.421875 L 6.828125 -5.421875 L 6.828125 0 L 1.921875 0 L 1.921875 -19.28125 L 10.546875 -19.28125 C 13.097656 -19.28125 15.070312 -18.695312 16.46875 -17.53125 C 17.863281 -16.363281 18.5625 -14.707031 18.5625 -12.5625 C 18.5625 -9.582031 17.394531 -7.515625 15.0625 -6.359375 L 19.125 0 Z M 6.828125 -9.28125 L 10.546875 -9.28125 C 11.609375 -9.28125 12.429688 -9.546875 13.015625 -10.078125 C 13.609375 -10.609375 13.90625 -11.378906 13.90625 -12.390625 C 13.90625 -13.390625 13.609375 -14.144531 13.015625 -14.65625 C 12.429688 -15.164062 11.609375 -15.421875 10.546875 -15.421875 L 6.828125 -15.421875 Z M 6.828125 -9.28125 "/></g></g><g style="fill:#ffffff;fill-opacity:1;"><g transform="translate(59.075229, 27.987847)"><path style="stroke:none" d="M 14.484375 0 L 9.390625 -7.578125 L 6.828125 -4.734375 L 6.828125 0 L 1.921875 0 L 1.921875 -19.28125 L 6.828125 -19.28125 L 6.828125 -10.9375 L 14.21875 -19.28125 L 19.890625 -19.28125 L 12.734375 -11.296875 L 20.359375 0 Z M 14.484375 0 "/></g></g><g style="fill:#ffffff;fill-opacity:1;"><g transform="translate(79.655114, 27.987847)"><path style="stroke:none" d="M 14.734375 -3.546875 L 6.3125 -3.546875 L 4.90625 0 L -0.140625 0 L 8.1875 -19.28125 L 13.21875 -19.28125 L 21.34375 0 L 16.109375 0 Z M 13.3125 -7.265625 L 10.546875 -14.40625 L 7.734375 -7.265625 Z M 13.3125 -7.265625 "/></g></g><g style="fill:#ffffff;fill-opacity:1;"><g transform="translate(100.868652, 27.987847)"><path style="stroke:none" d="M 16.671875 -15.34375 L 10.859375 -15.34375 L 10.859375 0 L 5.953125 0 L 5.953125 -15.34375 L 0.1875 -15.34375 L 0.1875 -19.3125 L 16.671875 -19.3125 Z M 16.671875 -15.34375 "/></g></g><g style="fill:#ffffff;fill-opacity:1;"><g transform="translate(117.701734, 27.987847)"><path style="stroke:none" d="M 17.03125 -15.421875 L 6.828125 -15.421875 L 6.828125 -11.59375 L 16.03125 -11.59375 L 16.03125 -7.734375 L 6.828125 -7.734375 L 6.828125 -3.859375 L 17.328125 -3.859375 L 17.328125 0 L 1.921875 0 L 1.921875 -19.28125 L 17.03125 -19.28125 Z M 17.03125 -15.421875 "/></g></g><g style="fill:#ffffff;fill-opacity:1;"><g transform="translate(136.270463, 27.987847)"><path style="stroke:none" d="M 10.96875 -19.453125 C 12.394531 -19.453125 13.800781 -19.15625 15.1875 -18.5625 C 16.570312 -17.976562 17.753906 -17.191406 18.734375 -16.203125 L 15.890625 -12.84375 C 15.265625 -13.613281 14.515625 -14.222656 13.640625 -14.671875 C 12.773438 -15.117188 11.910156 -15.34375 11.046875 -15.34375 C 9.523438 -15.34375 8.25 -14.804688 7.21875 -13.734375 C 6.1875 -12.660156 5.671875 -11.332031 5.671875 -9.75 C 5.671875 -8.132812 6.1875 -6.785156 7.21875 -5.703125 C 8.25 -4.617188 9.523438 -4.078125 11.046875 -4.078125 C 11.859375 -4.078125 12.695312 -4.273438 13.5625 -4.671875 C 14.4375 -5.078125 15.210938 -5.628906 15.890625 -6.328125 L 18.765625 -3.3125 C 17.710938 -2.238281 16.472656 -1.378906 15.046875 -0.734375 C 13.628906 -0.0976562 12.210938 0.21875 10.796875 0.21875 C 7.898438 0.21875 5.484375 -0.722656 3.546875 -2.609375 C 1.617188 -4.503906 0.65625 -6.867188 0.65625 -9.703125 C 0.65625 -12.472656 1.640625 -14.789062 3.609375 -16.65625 C 5.578125 -18.519531 8.03125 -19.453125 10.96875 -19.453125 Z M 10.96875 -19.453125 "/></g></g><g style="fill:#ffffff;fill-opacity:1;"><g transform="translate(155.335096, 27.987847)"><path style="stroke:none" d="M 19.71875 0 L 14.8125 0 L 14.8125 -7.5 L 6.828125 -7.5 L 6.828125 0 L 1.921875 0 L 1.921875 -19.28125 L 6.828125 -19.28125 L 6.828125 -11.34375 L 14.8125 -11.34375 L 14.8125 -19.28125 L 19.71875 -19.28125 Z M 19.71875 0 "/></g></g></g></g></g><g transform="matrix(1,0,0,1,203,64)"><g id="9f34123845" clip-path="url(#9189f79982)"><g clip-rule="nonzero" clip-path="url(#647c457cac)"><g style="fill:#00fefb;fill-opacity:1;"><g transform="translate(0.237345, 18.005741)"><path style="stroke:none" d="M 6.796875 0 L 6.796875 -15.5 L 0.75 -15.5 L 0.75 -16.53125 L 13.96875 -16.53125 L 13.96875 -15.5 L 7.921875 -15.5 L 7.921875 0 Z M 6.796875 0 "/></g></g></g><g style="fill:#00fefb;fill-opacity:1;"><g transform="translate(14.951777, 18.005741)"><path style="stroke:none" d="M 1.890625 0 L 1.890625 -16.53125 L 13.921875 -16.53125 L 13.921875 -15.5 L 2.984375 -15.5 L 2.984375 -8.90625 L 12.28125 -8.90625 L 12.28125 -7.96875 L 2.984375 -7.96875 L 2.984375 -1.046875 L 14.203125 -1.046875 L 14.203125 0 Z M 1.890625 0 "/></g></g><g style="fill:#00fefb;fill-opacity:1;"><g transform="translate(30.445633, 18.005741)"><path style="stroke:none" d="M 10.296875 0.28125 C 8.546875 0.28125 6.992188 -0.0664062 5.640625 -0.765625 C 4.285156 -1.460938 3.222656 -2.445312 2.453125 -3.71875 C 1.679688 -4.988281 1.296875 -6.457031 1.296875 -8.125 C 1.296875 -9.375 1.515625 -10.523438 1.953125 -11.578125 C 2.398438 -12.628906 3.023438 -13.546875 3.828125 -14.328125 C 4.628906 -15.109375 5.582031 -15.710938 6.6875 -16.140625 C 7.789062 -16.578125 8.992188 -16.796875 10.296875 -16.796875 C 11.160156 -16.796875 12 -16.703125 12.8125 -16.515625 C 13.625 -16.328125 14.367188 -16.050781 15.046875 -15.6875 L 14.90625 -14.453125 C 14.257812 -14.867188 13.550781 -15.1875 12.78125 -15.40625 C 12.007812 -15.632812 11.175781 -15.75 10.28125 -15.75 C 8.75 -15.75 7.390625 -15.414062 6.203125 -14.75 C 5.015625 -14.082031 4.082031 -13.171875 3.40625 -12.015625 C 2.726562 -10.867188 2.390625 -9.570312 2.390625 -8.125 C 2.390625 -6.644531 2.726562 -5.351562 3.40625 -4.25 C 4.082031 -3.144531 5.019531 -2.285156 6.21875 -1.671875 C 7.414062 -1.054688 8.773438 -0.75 10.296875 -0.75 C 11.398438 -0.75 12.441406 -0.921875 13.421875 -1.265625 C 14.398438 -1.617188 15.234375 -2.085938 15.921875 -2.671875 L 15.921875 -1.46875 C 15.171875 -0.914062 14.320312 -0.484375 13.375 -0.171875 C 12.425781 0.128906 11.398438 0.28125 10.296875 0.28125 Z M 10.296875 0.28125 "/></g></g><g style="fill:#00fefb;fill-opacity:1;"><g transform="translate(47.025939, 18.005741)"><path style="stroke:none" d="M 15.3125 0.28125 L 3.140625 -14.0625 L 2.984375 -14.0625 L 2.984375 0 L 1.890625 0 L 1.890625 -16.796875 L 2.296875 -16.796875 L 14.484375 -2.484375 L 14.625 -2.484375 L 14.625 -16.53125 L 15.703125 -16.53125 L 15.703125 0.28125 Z M 15.3125 0.28125 "/></g></g><g style="fill:#00fefb;fill-opacity:1;"><g transform="translate(64.621847, 18.005741)"><path style="stroke:none" d="M 9.546875 0.28125 C 8.359375 0.28125 7.257812 0.0703125 6.25 -0.34375 C 5.25 -0.757812 4.378906 -1.347656 3.640625 -2.109375 C 2.898438 -2.878906 2.320312 -3.78125 1.90625 -4.8125 C 1.5 -5.851562 1.296875 -7 1.296875 -8.25 C 1.296875 -9.488281 1.5 -10.628906 1.90625 -11.671875 C 2.320312 -12.722656 2.898438 -13.628906 3.640625 -14.390625 C 4.378906 -15.160156 5.25 -15.753906 6.25 -16.171875 C 7.257812 -16.585938 8.359375 -16.796875 9.546875 -16.796875 C 10.742188 -16.796875 11.84375 -16.585938 12.84375 -16.171875 C 13.851562 -15.753906 14.726562 -15.160156 15.46875 -14.390625 C 16.207031 -13.628906 16.78125 -12.722656 17.1875 -11.671875 C 17.601562 -10.628906 17.8125 -9.488281 17.8125 -8.25 C 17.8125 -7 17.601562 -5.851562 17.1875 -4.8125 C 16.78125 -3.78125 16.207031 -2.878906 15.46875 -2.109375 C 14.726562 -1.347656 13.851562 -0.757812 12.84375 -0.34375 C 11.84375 0.0703125 10.742188 0.28125 9.546875 0.28125 Z M 9.546875 -0.75 C 10.929688 -0.75 12.160156 -1.066406 13.234375 -1.703125 C 14.316406 -2.347656 15.164062 -3.238281 15.78125 -4.375 C 16.40625 -5.507812 16.71875 -6.800781 16.71875 -8.25 C 16.71875 -9.707031 16.40625 -11 15.78125 -12.125 C 15.164062 -13.257812 14.316406 -14.144531 13.234375 -14.78125 C 12.160156 -15.425781 10.929688 -15.75 9.546875 -15.75 C 8.171875 -15.75 6.941406 -15.425781 5.859375 -14.78125 C 4.785156 -14.144531 3.9375 -13.257812 3.3125 -12.125 C 2.695312 -11 2.390625 -9.707031 2.390625 -8.25 C 2.390625 -6.800781 2.695312 -5.507812 3.3125 -4.375 C 3.9375 -3.238281 4.785156 -2.347656 5.859375 -1.703125 C 6.941406 -1.066406 8.171875 -0.75 9.546875 -0.75 Z M 9.546875 -0.75 "/></g></g><g style="fill:#00fefb;fill-opacity:1;"><g transform="translate(83.72935, 18.005741)"><path style="stroke:none" d="M 1.890625 0 L 1.890625 -16.53125 L 3 -16.53125 L 3 -1.046875 L 13.625 -1.046875 L 13.625 0 Z M 1.890625 0 "/></g></g><g style="fill:#00fefb;fill-opacity:1;"><g transform="translate(98.254829, 18.005741)"><path style="stroke:none" d="M 9.546875 0.28125 C 8.359375 0.28125 7.257812 0.0703125 6.25 -0.34375 C 5.25 -0.757812 4.378906 -1.347656 3.640625 -2.109375 C 2.898438 -2.878906 2.320312 -3.78125 1.90625 -4.8125 C 1.5 -5.851562 1.296875 -7 1.296875 -8.25 C 1.296875 -9.488281 1.5 -10.628906 1.90625 -11.671875 C 2.320312 -12.722656 2.898438 -13.628906 3.640625 -14.390625 C 4.378906 -15.160156 5.25 -15.753906 6.25 -16.171875 C 7.257812 -16.585938 8.359375 -16.796875 9.546875 -16.796875 C 10.742188 -16.796875 11.84375 -16.585938 12.84375 -16.171875 C 13.851562 -15.753906 14.726562 -15.160156 15.46875 -14.390625 C 16.207031 -13.628906 16.78125 -12.722656 17.1875 -11.671875 C 17.601562 -10.628906 17.8125 -9.488281 17.8125 -8.25 C 17.8125 -7 17.601562 -5.851562 17.1875 -4.8125 C 16.78125 -3.78125 16.207031 -2.878906 15.46875 -2.109375 C 14.726562 -1.347656 13.851562 -0.757812 12.84375 -0.34375 C 11.84375 0.0703125 10.742188 0.28125 9.546875 0.28125 Z M 9.546875 -0.75 C 10.929688 -0.75 12.160156 -1.066406 13.234375 -1.703125 C 14.316406 -2.347656 15.164062 -3.238281 15.78125 -4.375 C 16.40625 -5.507812 16.71875 -6.800781 16.71875 -8.25 C 16.71875 -9.707031 16.40625 -11 15.78125 -12.125 C 15.164062 -13.257812 14.316406 -14.144531 13.234375 -14.78125 C 12.160156 -15.425781 10.929688 -15.75 9.546875 -15.75 C 8.171875 -15.75 6.941406 -15.425781 5.859375 -14.78125 C 4.785156 -14.144531 3.9375 -13.257812 3.3125 -12.125 C 2.695312 -11 2.390625 -9.707031 2.390625 -8.25 C 2.390625 -6.800781 2.695312 -5.507812 3.3125 -4.375 C 3.9375 -3.238281 4.785156 -2.347656 5.859375 -1.703125 C 6.941406 -1.066406 8.171875 -0.75 9.546875 -0.75 Z M 9.546875 -0.75 "/></g></g><g style="fill:#00fefb;fill-opacity:1;"><g transform="translate(117.362332, 18.005741)"><path style="stroke:none" d="M 9.46875 0.28125 C 8.320312 0.28125 7.253906 0.0859375 6.265625 -0.296875 C 5.285156 -0.691406 4.421875 -1.253906 3.671875 -1.984375 C 2.921875 -2.722656 2.335938 -3.601562 1.921875 -4.625 C 1.503906 -5.65625 1.296875 -6.789062 1.296875 -8.03125 C 1.296875 -9.25 1.507812 -10.382812 1.9375 -11.4375 C 2.363281 -12.488281 2.957031 -13.414062 3.71875 -14.21875 C 4.476562 -15.019531 5.367188 -15.648438 6.390625 -16.109375 C 7.410156 -16.566406 8.515625 -16.796875 9.703125 -16.796875 C 10.828125 -16.796875 11.789062 -16.6875 12.59375 -16.46875 C 13.394531 -16.25 14.078125 -15.957031 14.640625 -15.59375 C 15.210938 -15.226562 15.703125 -14.828125 16.109375 -14.390625 L 15.328125 -13.515625 C 14.773438 -14.128906 14.003906 -14.65625 13.015625 -15.09375 C 12.023438 -15.53125 10.921875 -15.75 9.703125 -15.75 C 8.671875 -15.75 7.707031 -15.546875 6.8125 -15.140625 C 5.925781 -14.742188 5.148438 -14.191406 4.484375 -13.484375 C 3.828125 -12.773438 3.3125 -11.957031 2.9375 -11.03125 C 2.570312 -10.101562 2.390625 -9.101562 2.390625 -8.03125 C 2.390625 -6.5625 2.703125 -5.285156 3.328125 -4.203125 C 3.960938 -3.117188 4.8125 -2.269531 5.875 -1.65625 C 6.945312 -1.050781 8.144531 -0.75 9.46875 -0.75 C 10.664062 -0.75 11.765625 -1.046875 12.765625 -1.640625 C 13.765625 -2.234375 14.578125 -3.046875 15.203125 -4.078125 C 15.828125 -5.117188 16.175781 -6.316406 16.25 -7.671875 L 9.96875 -7.671875 L 9.96875 -8.640625 L 19.25 -8.640625 L 19.25 -7.671875 L 17.34375 -7.671875 C 17.257812 -6.066406 16.859375 -4.671875 16.140625 -3.484375 C 15.429688 -2.296875 14.492188 -1.367188 13.328125 -0.703125 C 12.171875 -0.046875 10.882812 0.28125 9.46875 0.28125 Z M 9.46875 0.28125 "/></g></g><g style="fill:#00fefb;fill-opacity:1;"><g transform="translate(137.296496, 18.005741)"><path style="stroke:none" d="M 7.296875 0 L 7.296875 -6.75 L 0.28125 -16.53125 L 1.609375 -16.53125 L 7.765625 -7.984375 L 7.921875 -7.984375 L 14.125 -16.53125 L 15.421875 -16.53125 L 8.390625 -6.734375 L 8.390625 0 Z M 7.296875 0 "/></g></g></g></g></g></g></g></svg>